0
SECTION
2
HEADER
9
$INSUNITS
70
4
0
ENDSEC
0
SECTION
2
TABLES
0
TABLE
2
LTYPE
0
LTYPE
72
65
70
0
2
CONTINUOUS
3
______
73
0
40
0
0
LTYPE
72
65
70
0
2
DASHED
3
_ _ _ 
73
2
40
7.5
49
5
49
-2.5
0
LTYPE
72
65
70
0
2
DOTTED
3
. . . 
73
2
40
1.5
49
0.5
49
-1
0
ENDTAB
0
TABLE
2
LAYER
0
ENDTAB
0
ENDSEC
0
SECTION
2
ENTITIES
0
LINE
8
0
6
CONTINUOUS
10
86.2464007
20
-40.3438395
11
123.4085341
21
-34.6283142
0
LINE
8
0
6
CONTINUOUS
10
123.7125587
20
-34.6050714
11
300.4534559
21
-34.6050714
0
LINE
8
0
6
CONTINUOUS
10
300.7574805
20
-34.6283142
11
337.9196139
21
-40.3438395
0
LINE
8
0
6
CONTINUOUS
10
339.6046331
20
-42.1115398
11
345.7140716
21
-100.2389651
0
LINE
8
0
6
CONTINUOUS
10
345.0732292
20
-101.925301
11
328.7356054
21
-116.8354211
0
LINE
8
0
6
CONTINUOUS
10
327.9334149
20
-117.2821672
11
234.5462145
21
-143.7841233
0
LINE
8
0
6
CONTINUOUS
10
234.0002037
20
-143.8600983
11
190.1658109
21
-143.8600983
0
LINE
8
0
6
CONTINUOUS
10
189.6198001
20
-143.7841233
11
96.2325997
21
-117.2821672
0
LINE
8
0
6
CONTINUOUS
10
95.4304092
20
-116.8354211
11
79.0927854
21
-101.925301
0
LINE
8
0
6
CONTINUOUS
10
78.451943
20
-100.2389651
11
84.5613815
21
-42.1115398
0
ARC
8
0
6
CONTINUOUS
10
123.7125587
20
-36.6050714
40
2
50
90
51
98.7435604
0
ARC
8
0
6
CONTINUOUS
10
300.4534559
20
-36.6050714
40
2
50
81.2564396
51
90
0
ARC
8
0
6
CONTINUOUS
10
337.6155893
20
-42.3205967
40
2
50
6.0000021
51
81.2564396
0
ARC
8
0
6
CONTINUOUS
10
343.7250278
20
-100.4480221
40
2
50
312.3843516
51
6.0000021
0
ARC
8
0
6
CONTINUOUS
10
327.3874041
20
-115.3581422
40
2
50
285.8431842
51
312.3843516
0
ARC
8
0
6
CONTINUOUS
10
234.0002037
20
-141.8600983
40
2
50
270
51
285.8431842
0
ARC
8
0
6
CONTINUOUS
10
190.1658109
20
-141.8600983
40
2
50
254.1568158
51
270
0
ARC
8
0
6
CONTINUOUS
10
96.7786105
20
-115.3581422
40
2
50
227.6156484
51
254.1568158
0
ARC
8
0
6
CONTINUOUS
10
80.4409868
20
-100.4480221
40
2
50
173.9999979
51
227.6156484
0
ARC
8
0
6
CONTINUOUS
10
86.5504253
20
-42.3205967
40
2
50
98.7435604
51
173.9999979
0
LINE
8
0
6
CONTINUOUS
10
80.8191682
20
-99.2415591
11
99.2178232
21
-101.1753357
0
LINE
8
0
6
CONTINUOUS
10
99.2178232
20
-101.1753357
11
101.1515998
21
-82.7766807
0
LINE
8
0
6
CONTINUOUS
10
101.1515998
20
-82.7766807
11
82.7529448
21
-80.8429041
0
LINE
8
0
6
CONTINUOUS
10
82.7529448
20
-80.8429041
11
80.8191682
21
-99.2415591
0
LINE
8
0
6
CONTINUOUS
10
82.805209
20
-80.345643
11
101.203864
21
-82.2794196
0
LINE
8
0
6
CONTINUOUS
10
101.203864
20
-82.2794196
11
103.1376406
21
-63.8807646
0
LINE
8
0
6
CONTINUOUS
10
103.1376406
20
-63.8807646
11
84.7389856
21
-61.946988
0
LINE
8
0
6
CONTINUOUS
10
84.7389856
20
-61.946988
11
82.805209
21
-80.345643
0
LINE
8
0
6
CONTINUOUS
10
84.7912498
20
-61.449727
11
103.1899048
21
-63.3835036
0
LINE
8
0
6
CONTINUOUS
10
103.1899048
20
-63.3835036
11
105.1236814
21
-44.9848486
0
LINE
8
0
6
CONTINUOUS
10
105.1236814
20
-44.9848486
11
86.7250264
21
-43.051072
0
LINE
8
0
6
CONTINUOUS
10
86.7250264
20
-43.051072
11
84.7912498
21
-61.449727
0
LINE
8
0
6
CONTINUOUS
10
98.2516857
20
-115.1509064
11
116.6503407
21
-117.084683
0
LINE
8
0
6
CONTINUOUS
10
116.6503407
20
-117.084683
11
118.5841173
21
-98.686028
0
LINE
8
0
6
CONTINUOUS
10
118.5841173
20
-98.686028
11
100.1854623
21
-96.7522514
0
LINE
8
0
6
CONTINUOUS
10
100.1854623
20
-96.7522514
11
98.2516857
21
-115.1509064
0
LINE
8
0
6
CONTINUOUS
10
100.2377265
20
-96.2549904
11
118.6363815
21
-98.188767
0
LINE
8
0
6
CONTINUOUS
10
118.6363815
20
-98.188767
11
120.5701581
21
-79.790112
0
LINE
8
0
6
CONTINUOUS
10
120.5701581
20
-79.790112
11
102.1715031
21
-77.8563354
0
LINE
8
0
6
CONTINUOUS
10
102.1715031
20
-77.8563354
11
100.2377265
21
-96.2549904
0
LINE
8
0
6
CONTINUOUS
10
102.2237673
20
-77.3590744
11
120.6224223
21
-79.292851
0
LINE
8
0
6
CONTINUOUS
10
120.6224223
20
-79.292851
11
122.5561989
21
-60.894196
0
LINE
8
0
6
CONTINUOUS
10
122.5561989
20
-60.894196
11
104.1575439
21
-58.9604194
0
LINE
8
0
6
CONTINUOUS
10
104.1575439
20
-58.9604194
11
102.2237673
21
-77.3590744
0
LINE
8
0
6
CONTINUOUS
10
104.2098081
20
-58.4631584
11
122.6084631
21
-60.396935
0
LINE
8
0
6
CONTINUOUS
10
122.6084631
20
-60.396935
11
124.5422397
21
-41.99828
0
LINE
8
0
6
CONTINUOUS
10
124.5422397
20
-41.99828
11
106.1435847
21
-40.0645034
0
LINE
8
0
6
CONTINUOUS
10
106.1435847
20
-40.0645034
11
104.2098081
21
-58.4631584
0
LINE
8
0
6
CONTINUOUS
10
117.6702441
20
-112.1643377
11
136.0688991
21
-114.0981143
0
LINE
8
0
6
CONTINUOUS
10
136.0688991
20
-114.0981143
11
138.0026757
21
-95.6994593
0
LINE
8
0
6
CONTINUOUS
10
138.0026757
20
-95.6994593
11
119.6040207
21
-93.7656827
0
LINE
8
0
6
CONTINUOUS
10
119.6040207
20
-93.7656827
11
117.6702441
21
-112.1643377
0
LINE
8
0
6
CONTINUOUS
10
119.6562849
20
-93.2684217
11
138.0549399
21
-95.2021983
0
LINE
8
0
6
CONTINUOUS
10
138.0549399
20
-95.2021983
11
139.9887165
21
-76.8035433
0
LINE
8
0
6
CONTINUOUS
10
139.9887165
20
-76.8035433
11
121.5900615
21
-74.8697667
0
LINE
8
0
6
CONTINUOUS
10
121.5900615
20
-74.8697667
11
119.6562849
21
-93.2684217
0
LINE
8
0
6
CONTINUOUS
10
121.6423257
20
-74.3725057
11
140.0409807
21
-76.3062823
0
LINE
8
0
6
CONTINUOUS
10
140.0409807
20
-76.3062823
11
141.9747573
21
-57.9076273
0
LINE
8
0
6
CONTINUOUS
10
141.9747573
20
-57.9076273
11
123.5761023
21
-55.9738507
0
LINE
8
0
6
CONTINUOUS
10
123.5761023
20
-55.9738507
11
121.6423257
21
-74.3725057
0
LINE
8
0
6
CONTINUOUS
10
123.6283665
20
-55.4765897
11
142.0270215
21
-57.4103663
0
LINE
8
0
6
CONTINUOUS
10
142.0270215
20
-57.4103663
11
143.9607981
21
-39.0117113
0
LINE
8
0
6
CONTINUOUS
10
143.9607981
20
-39.0117113
11
125.5621431
21
-37.0779347
0
LINE
8
0
6
CONTINUOUS
10
125.5621431
20
-37.0779347
11
123.6283665
21
-55.4765897
0
LINE
8
0
6
CONTINUOUS
10
136.0435178
20
-119.122988
11
154.4421728
21
-121.0567646
0
LINE
8
0
6
CONTINUOUS
10
154.4421728
20
-121.0567646
11
156.3759494
21
-102.6581096
0
LINE
8
0
6
CONTINUOUS
10
156.3759494
20
-102.6581096
11
137.9772944
21
-100.724333
0
LINE
8
0
6
CONTINUOUS
10
137.9772944
20
-100.724333
11
136.0435178
21
-119.122988
0
LINE
8
0
6
CONTINUOUS
10
138.0295586
20
-100.227072
11
156.4282136
21
-102.1608486
0
LINE
8
0
6
CONTINUOUS
10
156.4282136
20
-102.1608486
11
158.3619902
21
-83.7621936
0
LINE
8
0
6
CONTINUOUS
10
158.3619902
20
-83.7621936
11
139.9633352
21
-81.828417
0
LINE
8
0
6
CONTINUOUS
10
139.9633352
20
-81.828417
11
138.0295586
21
-100.227072
0
LINE
8
0
6
CONTINUOUS
10
140.0155994
20
-81.331156
11
158.4142544
21
-83.2649326
0
LINE
8
0
6
CONTINUOUS
10
158.4142544
20
-83.2649326
11
160.348031
21
-64.8662776
0
LINE
8
0
6
CONTINUOUS
10
160.348031
20
-64.8662776
11
141.949376
21
-62.932501
0
LINE
8
0
6
CONTINUOUS
10
141.949376
20
-62.932501
11
140.0155994
21
-81.331156
0
LINE
8
0
6
CONTINUOUS
10
142.0016402
20
-62.43524
11
160.4002952
21
-64.3690166
0
LINE
8
0
6
CONTINUOUS
10
160.4002952
20
-64.3690166
11
162.3340718
21
-45.9703616
0
LINE
8
0
6
CONTINUOUS
10
162.3340718
20
-45.9703616
11
143.9354168
21
-44.036585
0
LINE
8
0
6
CONTINUOUS
10
143.9354168
20
-44.036585
11
142.0016402
21
-62.43524
0
LINE
8
0
6
CONTINUOUS
10
156.4028323
20
-107.1857223
11
174.8014873
21
-109.1194989
0
LINE
8
0
6
CONTINUOUS
10
174.8014873
20
-109.1194989
11
176.7352639
21
-90.7208439
0
LINE
8
0
6
CONTINUOUS
10
176.7352639
20
-90.7208439
11
158.3366089
21
-88.7870673
0
LINE
8
0
6
CONTINUOUS
10
158.3366089
20
-88.7870673
11
156.4028323
21
-107.1857223
0
LINE
8
0
6
CONTINUOUS
10
158.3888731
20
-88.2898062
11
176.7875281
21
-90.2235828
0
LINE
8
0
6
CONTINUOUS
10
176.7875281
20
-90.2235828
11
178.7213047
21
-71.8249278
0
LINE
8
0
6
CONTINUOUS
10
178.7213047
20
-71.8249278
11
160.3226497
21
-69.8911512
0
LINE
8
0
6
CONTINUOUS
10
160.3226497
20
-69.8911512
11
158.3888731
21
-88.2898062
0
LINE
8
0
6
CONTINUOUS
10
160.3749139
20
-69.3938902
11
178.7735689
21
-71.3276668
0
LINE
8
0
6
CONTINUOUS
10
178.7735689
20
-71.3276668
11
180.7073455
21
-52.9290118
0
LINE
8
0
6
CONTINUOUS
10
180.7073455
20
-52.9290118
11
162.3086905
21
-50.9952352
0
LINE
8
0
6
CONTINUOUS
10
162.3086905
20
-50.9952352
11
160.3749139
21
-69.3938902
0
LINE
8
0
6
CONTINUOUS
10
153.8878828
20
-126.1801178
11
171.6712241
21
-131.2794089
0
LINE
8
0
6
CONTINUOUS
10
171.6712241
20
-131.2794089
11
176.7705152
21
-113.4960676
0
LINE
8
0
6
CONTINUOUS
10
176.7705152
20
-113.4960676
11
158.9871739
21
-108.3967765
0
LINE
8
0
6
CONTINUOUS
10
158.9871739
20
-108.3967765
11
153.8878828
21
-126.1801178
0
LINE
8
0
6
CONTINUOUS
10
172.2238783
20
-132.7416104
11
188.8515681
21
-140.8514766
0
LINE
8
0
6
CONTINUOUS
10
188.8515681
20
-140.8514766
11
196.9614343
21
-124.2237868
0
LINE
8
0
6
CONTINUOUS
10
196.9614343
20
-124.2237868
11
180.3337445
21
-116.1139206
0
LINE
8
0
6
CONTINUOUS
10
180.3337445
20
-116.1139206
11
172.2238783
21
-132.7416104
0
LINE
8
0
6
CONTINUOUS
10
324.9481914
20
-101.1753357
11
343.3468464
21
-99.2415591
0
LINE
8
0
6
CONTINUOUS
10
343.3468464
20
-99.2415591
11
341.4130698
21
-80.8429041
0
LINE
8
0
6
CONTINUOUS
10
341.4130698
20
-80.8429041
11
323.0144148
21
-82.7766807
0
LINE
8
0
6
CONTINUOUS
10
323.0144148
20
-82.7766807
11
324.9481914
21
-101.1753357
0
LINE
8
0
6
CONTINUOUS
10
322.9621506
20
-82.2794196
11
341.3608056
21
-80.345643
0
LINE
8
0
6
CONTINUOUS
10
341.3608056
20
-80.345643
11
339.427029
21
-61.946988
0
LINE
8
0
6
CONTINUOUS
10
339.427029
20
-61.946988
11
321.028374
21
-63.8807646
0
LINE
8
0
6
CONTINUOUS
10
321.028374
20
-63.8807646
11
322.9621506
21
-82.2794196
0
LINE
8
0
6
CONTINUOUS
10
320.9761098
20
-63.3835036
11
339.3747648
21
-61.449727
0
LINE
8
0
6
CONTINUOUS
10
339.3747648
20
-61.449727
11
337.4409882
21
-43.051072
0
LINE
8
0
6
CONTINUOUS
10
337.4409882
20
-43.051072
11
319.0423332
21
-44.9848486
0
LINE
8
0
6
CONTINUOUS
10
319.0423332
20
-44.9848486
11
320.9761098
21
-63.3835036
0
LINE
8
0
6
CONTINUOUS
10
307.5156739
20
-117.084683
11
325.9143289
21
-115.1509064
0
LINE
8
0
6
CONTINUOUS
10
325.9143289
20
-115.1509064
11
323.9805523
21
-96.7522514
0
LINE
8
0
6
CONTINUOUS
10
323.9805523
20
-96.7522514
11
305.5818973
21
-98.686028
0
LINE
8
0
6
CONTINUOUS
10
305.5818973
20
-98.686028
11
307.5156739
21
-117.084683
0
LINE
8
0
6
CONTINUOUS
10
305.5296331
20
-98.188767
11
323.9282881
21
-96.2549904
0
LINE
8
0
6
CONTINUOUS
10
323.9282881
20
-96.2549904
11
321.9945115
21
-77.8563354
0
LINE
8
0
6
CONTINUOUS
10
321.9945115
20
-77.8563354
11
303.5958565
21
-79.790112
0
LINE
8
0
6
CONTINUOUS
10
303.5958565
20
-79.790112
11
305.5296331
21
-98.188767
0
LINE
8
0
6
CONTINUOUS
10
303.5435923
20
-79.292851
11
321.9422473
21
-77.3590744
0
LINE
8
0
6
CONTINUOUS
10
321.9422473
20
-77.3590744
11
320.0084707
21
-58.9604194
0
LINE
8
0
6
CONTINUOUS
10
320.0084707
20
-58.9604194
11
301.6098157
21
-60.894196
0
LINE
8
0
6
CONTINUOUS
10
301.6098157
20
-60.894196
11
303.5435923
21
-79.292851
0
LINE
8
0
6
CONTINUOUS
10
301.5575515
20
-60.396935
11
319.9562065
21
-58.4631584
0
LINE
8
0
6
CONTINUOUS
10
319.9562065
20
-58.4631584
11
318.0224299
21
-40.0645034
0
LINE
8
0
6
CONTINUOUS
10
318.0224299
20
-40.0645034
11
299.6237749
21
-41.99828
0
LINE
8
0
6
CONTINUOUS
10
299.6237749
20
-41.99828
11
301.5575515
21
-60.396935
0
LINE
8
0
6
CONTINUOUS
10
288.0971155
20
-114.0981143
11
306.4957705
21
-112.1643377
0
LINE
8
0
6
CONTINUOUS
10
306.4957705
20
-112.1643377
11
304.5619939
21
-93.7656827
0
LINE
8
0
6
CONTINUOUS
10
304.5619939
20
-93.7656827
11
286.1633389
21
-95.6994593
0
LINE
8
0
6
CONTINUOUS
10
286.1633389
20
-95.6994593
11
288.0971155
21
-114.0981143
0
LINE
8
0
6
CONTINUOUS
10
286.1110747
20
-95.2021983
11
304.5097297
21
-93.2684217
0
LINE
8
0
6
CONTINUOUS
10
304.5097297
20
-93.2684217
11
302.5759531
21
-74.8697667
0
LINE
8
0
6
CONTINUOUS
10
302.5759531
20
-74.8697667
11
284.1772981
21
-76.8035433
0
LINE
8
0
6
CONTINUOUS
10
284.1772981
20
-76.8035433
11
286.1110747
21
-95.2021983
0
LINE
8
0
6
CONTINUOUS
10
284.1250339
20
-76.3062823
11
302.5236889
21
-74.3725057
0
LINE
8
0
6
CONTINUOUS
10
302.5236889
20
-74.3725057
11
300.5899123
21
-55.9738507
0
LINE
8
0
6
CONTINUOUS
10
300.5899123
20
-55.9738507
11
282.1912573
21
-57.9076273
0
LINE
8
0
6
CONTINUOUS
10
282.1912573
20
-57.9076273
11
284.1250339
21
-76.3062823
0
LINE
8
0
6
CONTINUOUS
10
282.1389931
20
-57.4103663
11
300.5376481
21
-55.4765897
0
LINE
8
0
6
CONTINUOUS
10
300.5376481
20
-55.4765897
11
298.6038715
21
-37.0779347
0
LINE
8
0
6
CONTINUOUS
10
298.6038715
20
-37.0779347
11
280.2052165
21
-39.0117113
0
LINE
8
0
6
CONTINUOUS
10
280.2052165
20
-39.0117113
11
282.1389931
21
-57.4103663
0
LINE
8
0
6
CONTINUOUS
10
269.7238418
20
-121.0567646
11
288.1224968
21
-119.122988
0
LINE
8
0
6
CONTINUOUS
10
288.1224968
20
-119.122988
11
286.1887202
21
-100.724333
0
LINE
8
0
6
CONTINUOUS
10
286.1887202
20
-100.724333
11
267.7900652
21
-102.6581096
0
LINE
8
0
6
CONTINUOUS
10
267.7900652
20
-102.6581096
11
269.7238418
21
-121.0567646
0
LINE
8
0
6
CONTINUOUS
10
267.737801
20
-102.1608486
11
286.136456
21
-100.227072
0
LINE
8
0
6
CONTINUOUS
10
286.136456
20
-100.227072
11
284.2026794
21
-81.828417
0
LINE
8
0
6
CONTINUOUS
10
284.2026794
20
-81.828417
11
265.8040244
21
-83.7621936
0
LINE
8
0
6
CONTINUOUS
10
265.8040244
20
-83.7621936
11
267.737801
21
-102.1608486
0
LINE
8
0
6
CONTINUOUS
10
265.7517602
20
-83.2649326
11
284.1504152
21
-81.331156
0
LINE
8
0
6
CONTINUOUS
10
284.1504152
20
-81.331156
11
282.2166386
21
-62.932501
0
LINE
8
0
6
CONTINUOUS
10
282.2166386
20
-62.932501
11
263.8179836
21
-64.8662776
0
LINE
8
0
6
CONTINUOUS
10
263.8179836
20
-64.8662776
11
265.7517602
21
-83.2649326
0
LINE
8
0
6
CONTINUOUS
10
263.7657194
20
-64.3690166
11
282.1643744
21
-62.43524
0
LINE
8
0
6
CONTINUOUS
10
282.1643744
20
-62.43524
11
280.2305978
21
-44.036585
0
LINE
8
0
6
CONTINUOUS
10
280.2305978
20
-44.036585
11
261.8319428
21
-45.9703616
0
LINE
8
0
6
CONTINUOUS
10
261.8319428
20
-45.9703616
11
263.7657194
21
-64.3690166
0
LINE
8
0
6
CONTINUOUS
10
249.3645273
20
-109.1194989
11
267.7631823
21
-107.1857223
0
LINE
8
0
6
CONTINUOUS
10
267.7631823
20
-107.1857223
11
265.8294057
21
-88.7870673
0
LINE
8
0
6
CONTINUOUS
10
265.8294057
20
-88.7870673
11
247.4307507
21
-90.7208439
0
LINE
8
0
6
CONTINUOUS
10
247.4307507
20
-90.7208439
11
249.3645273
21
-109.1194989
0
LINE
8
0
6
CONTINUOUS
10
247.3784865
20
-90.2235828
11
265.7771415
21
-88.2898062
0
LINE
8
0
6
CONTINUOUS
10
265.7771415
20
-88.2898062
11
263.8433649
21
-69.8911512
0
LINE
8
0
6
CONTINUOUS
10
263.8433649
20
-69.8911512
11
245.4447099
21
-71.8249278
0
LINE
8
0
6
CONTINUOUS
10
245.4447099
20
-71.8249278
11
247.3784865
21
-90.2235828
0
LINE
8
0
6
CONTINUOUS
10
245.3924457
20
-71.3276668
11
263.7911007
21
-69.3938902
0
LINE
8
0
6
CONTINUOUS
10
263.7911007
20
-69.3938902
11
261.8573241
21
-50.9952352
0
LINE
8
0
6
CONTINUOUS
10
261.8573241
20
-50.9952352
11
243.4586691
21
-52.9290118
0
LINE
8
0
6
CONTINUOUS
10
243.4586691
20
-52.9290118
11
245.3924457
21
-71.3276668
0
LINE
8
0
6
CONTINUOUS
10
252.4947905
20
-131.2794089
11
270.2781318
21
-126.1801178
0
LINE
8
0
6
CONTINUOUS
10
270.2781318
20
-126.1801178
11
265.1788407
21
-108.3967765
0
LINE
8
0
6
CONTINUOUS
10
265.1788407
20
-108.3967765
11
247.3954994
21
-113.4960676
0
LINE
8
0
6
CONTINUOUS
10
247.3954994
20
-113.4960676
11
252.4947905
21
-131.2794089
0
LINE
8
0
6
CONTINUOUS
10
235.3144465
20
-140.8514766
11
251.9421363
21
-132.7416104
0
LINE
8
0
6
CONTINUOUS
10
251.9421363
20
-132.7416104
11
243.8322701
21
-116.1139206
0
LINE
8
0
6
CONTINUOUS
10
243.8322701
20
-116.1139206
11
227.2045803
21
-124.2237868
0
LINE
8
0
6
CONTINUOUS
10
227.2045803
20
-124.2237868
11
235.3144465
21
-140.8514766
0
ENDSEC
0
EOF